STARTFONT 2.1
FONT -ibm-courier-bold-r-normal--10-100-100-100-m-73-iso8859-2
SIZE 10 100 100
FONTBOUNDINGBOX 12 15 -1 -2
COMMENT $Header: courB10.bdf,v 1.1 96/01/22 23:46:50 peterlin Exp $
COMMENT 
COMMENT Copyright International Business Machines,Corp. 1991
COMMENT IBM Courier is a Trademark of the IBM Corporation.
COMMENT 
COMMENT Automatic rendering from Adobe Type 1 outline:
COMMENT Primoz Peterlin <primoz.peterlin@biofiz.mf.uni-lj.si>
COMMENT courb.pfa rendered at 11.000000 points
COMMENT Checksum eb69a063
STARTPROPERTIES 3
FONT_ASCENT 12
FONT_DESCENT 2
DEFAULT_CHAR 32
ENDPROPERTIES
CHARS 191
STARTCHAR space
ENCODING 32
SWIDTH 586 0
DWIDTH 9 0
BBX 0 0 0 1
BITMAP
ENDCHAR
STARTCHAR exclam
ENCODING 33
SWIDTH 586 0
DWIDTH 9 0
BBX 3 9 3 1
BITMAP
60
60
60
60
60
60
00
60
60
ENDCHAR
STARTCHAR quotedbl
ENCODING 34
SWIDTH 586 0
DWIDTH 9 0
BBX 5 5 2 5
BITMAP
d8
d8
d8
d8
d8
ENDCHAR
STARTCHAR numbersign
ENCODING 35
SWIDTH 586 0
DWIDTH 9 0
BBX 8 11 1 0
BITMAP
64
66
66
ff
6c
6c
64
ff
4c
6c
6c
ENDCHAR
STARTCHAR dollar
ENCODING 36
SWIDTH 586 0
DWIDTH 9 0
BBX 7 12 1 -1
BITMAP
30
30
fe
d6
f6
78
34
e6
fe
f8
30
30
ENDCHAR
STARTCHAR percent
ENCODING 37
SWIDTH 586 0
DWIDTH 9 0
BBX 9 9 0 1
BITMAP
7000
d800
da00
7700
1c00
6700
0d80
0d80
0700
ENDCHAR
STARTCHAR ampersand
ENCODING 38
SWIDTH 586 0
DWIDTH 9 0
BBX 7 8 1 1
BITMAP
3c
64
60
70
fe
dc
cc
76
ENDCHAR
STARTCHAR quoteright
ENCODING 39
SWIDTH 586 0
DWIDTH 9 0
BBX 3 4 3 6
BITMAP
60
60
40
c0
ENDCHAR
STARTCHAR parenleft
ENCODING 40
SWIDTH 586 0
DWIDTH 9 0
BBX 3 11 4 0
BITMAP
20
60
40
c0
c0
c0
c0
c0
40
60
20
ENDCHAR
STARTCHAR parenright
ENCODING 41
SWIDTH 586 0
DWIDTH 9 0
BBX 3 11 2 0
BITMAP
80
c0
40
60
60
60
60
60
40
c0
80
ENDCHAR
STARTCHAR asterisk
ENCODING 42
SWIDTH 586 0
DWIDTH 9 0
BBX 6 6 1 4
BITMAP
30
b4
fc
30
78
48
ENDCHAR
STARTCHAR plus
ENCODING 43
SWIDTH 586 0
DWIDTH 9 0
BBX 7 7 1 2
BITMAP
30
30
30
fe
30
30
30
ENDCHAR
STARTCHAR comma
ENCODING 44
SWIDTH 586 0
DWIDTH 9 0
BBX 3 4 3 -1
BITMAP
60
40
40
c0
ENDCHAR
STARTCHAR minus
ENCODING 45
SWIDTH 586 0
DWIDTH 9 0
BBX 7 1 1 5
BITMAP
fe
ENDCHAR
STARTCHAR period
ENCODING 46
SWIDTH 586 0
DWIDTH 9 0
BBX 3 3 3 1
BITMAP
60
e0
40
ENDCHAR
STARTCHAR slash
ENCODING 47
SWIDTH 586 0
DWIDTH 9 0
BBX 7 13 1 -1
BITMAP
02
06
04
0c
08
18
10
30
20
60
40
c0
80
ENDCHAR
STARTCHAR zero
ENCODING 48
SWIDTH 586 0
DWIDTH 9 0
BBX 7 9 1 1
BITMAP
38
4c
c6
c6
c6
c6
c6
6c
38
ENDCHAR
STARTCHAR one
ENCODING 49
SWIDTH 586 0
DWIDTH 9 0
BBX 7 9 1 1
BITMAP
38
48
08
18
18
18
18
18
fe
ENDCHAR
STARTCHAR two
ENCODING 50
SWIDTH 586 0
DWIDTH 9 0
BBX 7 9 1 1
BITMAP
7c
c6
06
06
0c
18
26
66
fe
ENDCHAR
STARTCHAR three
ENCODING 51
SWIDTH 586 0
DWIDTH 9 0
BBX 7 9 1 1
BITMAP
78
4c
0c
1c
3c
06
06
8e
78
ENDCHAR
STARTCHAR four
ENCODING 52
SWIDTH 586 0
DWIDTH 9 0
BBX 7 9 1 1
BITMAP
18
38
78
58
98
fe
18
18
3e
ENDCHAR
STARTCHAR five
ENCODING 53
SWIDTH 586 0
DWIDTH 9 0
BBX 7 9 1 1
BITMAP
fe
c0
80
f8
8c
06
06
8c
f8
ENDCHAR
STARTCHAR six
ENCODING 54
SWIDTH 586 0
DWIDTH 9 0
BBX 7 9 1 1
BITMAP
1e
20
40
f8
ec
c6
c6
66
38
ENDCHAR
STARTCHAR seven
ENCODING 55
SWIDTH 586 0
DWIDTH 9 0
BBX 7 9 1 1
BITMAP
fe
c4
04
0c
08
18
18
10
10
ENDCHAR
STARTCHAR eight
ENCODING 56
SWIDTH 586 0
DWIDTH 9 0
BBX 7 9 1 1
BITMAP
7c
c6
c6
ee
3c
c6
c6
c6
38
ENDCHAR
STARTCHAR nine
ENCODING 57
SWIDTH 586 0
DWIDTH 9 0
BBX 6 9 1 1
BITMAP
78
cc
cc
cc
7c
0c
0c
18
f0
ENDCHAR
STARTCHAR colon
ENCODING 58
SWIDTH 586 0
DWIDTH 9 0
BBX 3 7 3 1
BITMAP
60
e0
40
00
60
e0
40
ENDCHAR
STARTCHAR semicolon
ENCODING 59
SWIDTH 586 0
DWIDTH 9 0
BBX 4 9 2 -1
BITMAP
60
70
20
00
00
70
60
60
40
ENDCHAR
STARTCHAR less
ENCODING 60
SWIDTH 586 0
DWIDTH 9 0
BBX 8 7 0 2
BITMAP
03
0e
38
e0
38
0e
01
ENDCHAR
STARTCHAR equal
ENCODING 61
SWIDTH 586 0
DWIDTH 9 0
BBX 7 3 1 4
BITMAP
fe
00
fe
ENDCHAR
STARTCHAR greater
ENCODING 62
SWIDTH 586 0
DWIDTH 9 0
BBX 8 7 1 2
BITMAP
c0
70
0e
06
18
e0
80
ENDCHAR
STARTCHAR question
ENCODING 63
SWIDTH 586 0
DWIDTH 9 0
BBX 7 9 1 1
BITMAP
f8
c6
c6
06
3c
30
00
30
30
ENDCHAR
STARTCHAR at
ENCODING 64
SWIDTH 586 0
DWIDTH 9 0
BBX 9 9 0 1
BITMAP
3e00
6300
cf80
d580
f580
fd80
ff00
6300
3e00
ENDCHAR
STARTCHAR A
ENCODING 65
SWIDTH 586 0
DWIDTH 9 0
BBX 9 9 0 1
BITMAP
3800
0c00
1400
1400
3600
3e00
2300
6300
f780
ENDCHAR
STARTCHAR B
ENCODING 66
SWIDTH 586 0
DWIDTH 9 0
BBX 8 9 1 1
BITMAP
fc
c6
c6
c6
fe
c7
c3
c3
fe
ENDCHAR
STARTCHAR C
ENCODING 67
SWIDTH 586 0
DWIDTH 9 0
BBX 9 9 0 1
BITMAP
1d00
7380
6180
c100
c000
c000
6080
6180
1e00
ENDCHAR
STARTCHAR D
ENCODING 68
SWIDTH 586 0
DWIDTH 9 0
BBX 9 9 0 1
BITMAP
fe00
6300
6180
6180
6180
6180
6180
6300
fe00
ENDCHAR
STARTCHAR E
ENCODING 69
SWIDTH 586 0
DWIDTH 9 0
BBX 8 9 1 1
BITMAP
ff
63
62
6e
7c
6f
63
63
ff
ENDCHAR
STARTCHAR F
ENCODING 70
SWIDTH 586 0
DWIDTH 9 0
BBX 8 9 1 1
BITMAP
ff
63
63
6e
7c
6c
60
60
f8
ENDCHAR
STARTCHAR G
ENCODING 71
SWIDTH 586 0
DWIDTH 9 0
BBX 9 9 0 1
BITMAP
1e00
6300
6300
c200
c000
c780
c300
6300
1e00
ENDCHAR
STARTCHAR H
ENCODING 72
SWIDTH 586 0
DWIDTH 9 0
BBX 9 9 0 1
BITMAP
f780
6300
6300
6300
7f00
6300
6300
6300
f780
ENDCHAR
STARTCHAR I
ENCODING 73
SWIDTH 586 0
DWIDTH 9 0
BBX 7 9 1 1
BITMAP
fe
18
18
18
18
18
18
18
fe
ENDCHAR
STARTCHAR J
ENCODING 74
SWIDTH 586 0
DWIDTH 9 0
BBX 9 9 0 1
BITMAP
1f80
0600
0600
0600
0600
4600
c600
e600
7c00
ENDCHAR
STARTCHAR K
ENCODING 75
SWIDTH 586 0
DWIDTH 9 0
BBX 8 9 1 1
BITMAP
ee
6c
68
50
70
78
68
64
e7
ENDCHAR
STARTCHAR L
ENCODING 76
SWIDTH 586 0
DWIDTH 9 0
BBX 8 9 1 1
BITMAP
f0
60
60
60
60
63
63
63
ff
ENDCHAR
STARTCHAR M
ENCODING 77
SWIDTH 586 0
DWIDTH 9 0
BBX 9 9 0 1
BITMAP
e380
6300
7700
5500
7700
6b00
6300
6300
f780
ENDCHAR
STARTCHAR N
ENCODING 78
SWIDTH 586 0
DWIDTH 9 0
BBX 9 9 0 1
BITMAP
e780
7300
7300
7b00
6b00
6f00
6700
6700
f300
ENDCHAR
STARTCHAR O
ENCODING 79
SWIDTH 586 0
DWIDTH 9 0
BBX 9 9 0 1
BITMAP
1c00
6300
4100
c180
c180
c180
c180
6300
3e00
ENDCHAR
STARTCHAR P
ENCODING 80
SWIDTH 586 0
DWIDTH 9 0
BBX 8 9 1 1
BITMAP
fc
66
63
63
67
7e
60
60
f8
ENDCHAR
STARTCHAR Q
ENCODING 81
SWIDTH 586 0
DWIDTH 9 0
BBX 9 11 0 -1
BITMAP
1c00
6300
c300
c180
c180
c180
c180
6300
3e00
3900
2700
ENDCHAR
STARTCHAR R
ENCODING 82
SWIDTH 586 0
DWIDTH 9 0
BBX 8 9 1 1
BITMAP
fc
c6
c6
c6
fc
d8
cc
c4
e7
ENDCHAR
STARTCHAR S
ENCODING 83
SWIDTH 586 0
DWIDTH 9 0
BBX 7 9 1 1
BITMAP
3c
c6
c6
c4
7c
0e
c6
c6
fc
ENDCHAR
STARTCHAR T
ENCODING 84
SWIDTH 586 0
DWIDTH 9 0
BBX 9 9 0 1
BITMAP
ff80
d980
d980
9980
1800
1800
1800
1800
3e00
ENDCHAR
STARTCHAR U
ENCODING 85
SWIDTH 586 0
DWIDTH 9 0
BBX 9 9 0 1
BITMAP
f780
6300
6300
6300
6300
6300
6300
6300
3e00
ENDCHAR
STARTCHAR V
ENCODING 86
SWIDTH 586 0
DWIDTH 9 0
BBX 9 9 0 1
BITMAP
f780
6300
2200
2200
3600
1400
1400
1c00
0800
ENDCHAR
STARTCHAR W
ENCODING 87
SWIDTH 586 0
DWIDTH 9 0
BBX 9 9 0 1
BITMAP
e380
4100
4900
4d00
5500
5700
6700
6300
2200
ENDCHAR
STARTCHAR X
ENCODING 88
SWIDTH 586 0
DWIDTH 9 0
BBX 9 9 0 1
BITMAP
7700
2200
1400
0c00
0c00
1400
3600
6300
f780
ENDCHAR
STARTCHAR Y
ENCODING 89
SWIDTH 586 0
DWIDTH 9 0
BBX 7 9 1 1
BITMAP
ee
44
2c
28
18
18
18
18
7c
ENDCHAR
STARTCHAR Z
ENCODING 90
SWIDTH 586 0
DWIDTH 9 0
BBX 7 9 1 1
BITMAP
fe
cc
cc
d8
30
26
66
46
fe
ENDCHAR
STARTCHAR bracketleft
ENCODING 91
SWIDTH 586 0
DWIDTH 9 0
BBX 3 11 4 0
BITMAP
e0
c0
c0
c0
c0
c0
c0
c0
c0
c0
e0
ENDCHAR
STARTCHAR backslash
ENCODING 92
SWIDTH 586 0
DWIDTH 9 0
BBX 7 13 1 -1
BITMAP
80
c0
40
60
20
30
10
18
08
0c
04
06
06
ENDCHAR
STARTCHAR bracketright
ENCODING 93
SWIDTH 586 0
DWIDTH 9 0
BBX 3 11 2 0
BITMAP
e0
60
60
60
60
60
60
60
60
60
e0
ENDCHAR
STARTCHAR asciicircum
ENCODING 94
SWIDTH 586 0
DWIDTH 9 0
BBX 7 7 1 3
BITMAP
38
28
28
6c
44
c6
c6
ENDCHAR
STARTCHAR underscore
ENCODING 95
SWIDTH 586 0
DWIDTH 9 0
BBX 10 1 -1 -1
BITMAP
ffc0
ENDCHAR
STARTCHAR quoteleft
ENCODING 96
SWIDTH 586 0
DWIDTH 9 0
BBX 3 4 3 6
BITMAP
60
40
c0
c0
ENDCHAR
STARTCHAR a
ENCODING 97
SWIDTH 586 0
DWIDTH 9 0
BBX 8 7 0 1
BITMAP
7c
46
06
7e
c6
ce
7f
ENDCHAR
STARTCHAR b
ENCODING 98
SWIDTH 586 0
DWIDTH 9 0
BBX 9 9 0 1
BITMAP
e000
2000
3e00
7300
6180
6180
6180
7300
fe00
ENDCHAR
STARTCHAR c
ENCODING 99
SWIDTH 586 0
DWIDTH 9 0
BBX 8 7 1 1
BITMAP
3c
46
c2
c0
c0
46
3c
ENDCHAR
STARTCHAR d
ENCODING 100
SWIDTH 586 0
DWIDTH 9 0
BBX 9 9 0 1
BITMAP
0f00
0300
3f00
6700
c300
c300
c300
6700
3f80
ENDCHAR
STARTCHAR e
ENCODING 101
SWIDTH 586 0
DWIDTH 9 0
BBX 8 7 1 1
BITMAP
3c
46
c3
ff
c0
43
3c
ENDCHAR
STARTCHAR f
ENCODING 102
SWIDTH 586 0
DWIDTH 9 0
BBX 7 9 1 1
BITMAP
3c
60
fc
60
60
60
60
60
fc
ENDCHAR
STARTCHAR g
ENCODING 103
SWIDTH 586 0
DWIDTH 9 0
BBX 8 9 0 -1
BITMAP
3f
67
c3
c3
c3
67
3d
03
3e
ENDCHAR
STARTCHAR h
ENCODING 104
SWIDTH 586 0
DWIDTH 9 0
BBX 9 9 0 1
BITMAP
e000
2000
3e00
7300
6300
6300
6300
6300
f780
ENDCHAR
STARTCHAR i
ENCODING 105
SWIDTH 586 0
DWIDTH 9 0
BBX 7 11 1 1
BITMAP
30
30
00
00
78
18
18
18
18
18
fe
ENDCHAR
STARTCHAR j
ENCODING 106
SWIDTH 586 0
DWIDTH 9 0
BBX 5 13 1 -1
BITMAP
18
18
00
00
f8
18
18
18
18
18
18
18
f0
ENDCHAR
STARTCHAR k
ENCODING 107
SWIDTH 586 0
DWIDTH 9 0
BBX 9 9 0 1
BITMAP
e000
2000
2f00
4400
5800
7800
6c00
6600
6780
ENDCHAR
STARTCHAR l
ENCODING 108
SWIDTH 586 0
DWIDTH 9 0
BBX 7 9 1 1
BITMAP
30
10
10
30
30
30
30
30
fe
ENDCHAR
STARTCHAR m
ENCODING 109
SWIDTH 586 0
DWIDTH 9 0
BBX 9 7 0 1
BITMAP
bf00
f980
d980
d980
d980
d980
fd80
ENDCHAR
STARTCHAR n
ENCODING 110
SWIDTH 586 0
DWIDTH 9 0
BBX 9 7 0 1
BITMAP
fe00
7300
6300
6300
6300
6300
f780
ENDCHAR
STARTCHAR o
ENCODING 111
SWIDTH 586 0
DWIDTH 9 0
BBX 9 7 0 1
BITMAP
3e00
6300
c180
c180
c180
6300
3e00
ENDCHAR
STARTCHAR p
ENCODING 112
SWIDTH 586 0
DWIDTH 9 0
BBX 9 9 0 -1
BITMAP
fe00
7300
6180
6180
6180
7300
7e00
6000
f800
ENDCHAR
STARTCHAR q
ENCODING 113
SWIDTH 586 0
DWIDTH 9 0
BBX 9 9 0 -1
BITMAP
3f80
6700
c300
c300
c300
6700
3d00
0300
0f80
ENDCHAR
STARTCHAR r
ENCODING 114
SWIDTH 586 0
DWIDTH 9 0
BBX 8 7 1 1
BITMAP
ef
7a
60
60
60
60
fc
ENDCHAR
STARTCHAR s
ENCODING 115
SWIDTH 586 0
DWIDTH 9 0
BBX 7 7 1 1
BITMAP
7c
ce
c4
7c
46
c6
fc
ENDCHAR
STARTCHAR t
ENCODING 116
SWIDTH 586 0
DWIDTH 9 0
BBX 7 9 1 1
BITMAP
60
60
fc
60
60
60
60
62
3c
ENDCHAR
STARTCHAR u
ENCODING 117
SWIDTH 586 0
DWIDTH 9 0
BBX 8 7 0 1
BITMAP
e7
63
63
63
63
67
3d
ENDCHAR
STARTCHAR v
ENCODING 118
SWIDTH 586 0
DWIDTH 9 0
BBX 9 7 0 1
BITMAP
f780
6300
2600
3600
1400
1c00
0800
ENDCHAR
STARTCHAR w
ENCODING 119
SWIDTH 586 0
DWIDTH 9 0
BBX 9 7 0 1
BITMAP
e380
4900
4900
5d00
3700
3600
3600
ENDCHAR
STARTCHAR x
ENCODING 120
SWIDTH 586 0
DWIDTH 9 0
BBX 9 7 0 1
BITMAP
7700
1400
1400
0c00
1600
2700
e780
ENDCHAR
STARTCHAR y
ENCODING 121
SWIDTH 586 0
DWIDTH 9 0
BBX 9 9 0 -1
BITMAP
e380
4300
2200
3600
1400
1c00
0800
1800
f800
ENDCHAR
STARTCHAR z
ENCODING 122
SWIDTH 586 0
DWIDTH 9 0
BBX 7 7 1 1
BITMAP
fe
cc
d8
18
36
66
fe
ENDCHAR
STARTCHAR braceleft
ENCODING 123
SWIDTH 586 0
DWIDTH 9 0
BBX 4 11 3 0
BITMAP
30
60
60
60
60
e0
60
60
60
60
30
ENDCHAR
STARTCHAR bar
ENCODING 124
SWIDTH 586 0
DWIDTH 9 0
BBX 2 13 3 -2
BITMAP
c0
c0
c0
c0
c0
c0
c0
c0
c0
c0
c0
c0
c0
ENDCHAR
STARTCHAR braceright
ENCODING 125
SWIDTH 586 0
DWIDTH 9 0
BBX 4 11 2 0
BITMAP
c0
60
60
60
60
30
60
60
60
60
c0
ENDCHAR
STARTCHAR asciitilde
ENCODING 126
SWIDTH 586 0
DWIDTH 9 0
BBX 7 3 1 4
BITMAP
62
7e
4c
ENDCHAR
STARTCHAR space
ENCODING 160
SWIDTH 586 0
DWIDTH 9 0
BBX 0 0 0 1
BITMAP
ENDCHAR
STARTCHAR Aogonek
ENCODING 161
SWIDTH 586 0
DWIDTH 9 0
BBX 9 11 0 -1
BITMAP
3800
0c00
1400
1400
3600
3e00
2300
6300
f780
0600
0700
ENDCHAR
STARTCHAR breve
ENCODING 162
SWIDTH 586 0
DWIDTH 9 0
BBX 5 2 2 9
BITMAP
88
70
ENDCHAR
STARTCHAR Lslash
ENCODING 163
SWIDTH 586 0
DWIDTH 9 0
BBX 8 9 1 1
BITMAP
f0
60
68
78
70
e3
63
63
ff
ENDCHAR
STARTCHAR currency
ENCODING 164
SWIDTH 586 0
DWIDTH 9 0
BBX 7 7 1 2
BITMAP
82
fe
c6
c6
c6
fe
82
ENDCHAR
STARTCHAR Lcaron
ENCODING 165
SWIDTH 586 0
DWIDTH 9 0
BBX 9 9 1 1
BITMAP
f300
6000
6000
6000
6000
6300
6300
6300
ff00
ENDCHAR
STARTCHAR Sacute
ENCODING 166
SWIDTH 586 0
DWIDTH 9 0
BBX 7 11 1 1
BITMAP
18
00
3c
c6
c6
c4
7c
0e
c6
c6
fc
ENDCHAR
STARTCHAR section
ENCODING 167
SWIDTH 586 0
DWIDTH 9 0
BBX 7 10 1 0
BITMAP
3e
66
66
f0
cc
e6
36
1c
cc
fc
ENDCHAR
STARTCHAR dieresis
ENCODING 168
SWIDTH 586 0
DWIDTH 9 0
BBX 4 2 2 9
BITMAP
90
90
ENDCHAR
STARTCHAR Scaron
ENCODING 169
SWIDTH 586 0
DWIDTH 9 0
BBX 7 12 1 1
BITMAP
48
30
00
3c
c6
c6
c4
7c
0e
c6
c6
fc
ENDCHAR
STARTCHAR Scedilla
ENCODING 170
SWIDTH 586 0
DWIDTH 9 0
BBX 7 12 1 -2
BITMAP
3c
c6
c6
c4
7c
0e
c6
c6
f8
10
38
38
ENDCHAR
STARTCHAR Tcaron
ENCODING 171
SWIDTH 586 0
DWIDTH 9 0
BBX 9 12 0 1
BITMAP
2400
1800
0000
ff80
d980
d980
9980
1800
1800
1800
1800
3e00
ENDCHAR
STARTCHAR Zacute
ENCODING 172
SWIDTH 586 0
DWIDTH 9 0
BBX 7 11 1 1
BITMAP
18
00
fe
cc
cc
d8
30
26
66
46
fe
ENDCHAR
STARTCHAR hyphen
ENCODING 173
SWIDTH 586 0
DWIDTH 9 0
BBX 3 1 3 5
BITMAP
e0
ENDCHAR
STARTCHAR Zcaron
ENCODING 174
SWIDTH 586 0
DWIDTH 9 0
BBX 7 12 1 1
BITMAP
48
30
00
fe
cc
cc
d8
30
26
66
46
fe
ENDCHAR
STARTCHAR Zdotaccent
ENCODING 175
SWIDTH 586 0
DWIDTH 9 0
BBX 7 11 1 1
BITMAP
30
00
fe
cc
cc
d8
30
26
66
46
fe
ENDCHAR
STARTCHAR degree
ENCODING 176
SWIDTH 586 0
DWIDTH 9 0
BBX 5 4 2 6
BITMAP
70
d8
d8
70
ENDCHAR
STARTCHAR aogonek
ENCODING 177
SWIDTH 586 0
DWIDTH 9 0
BBX 8 9 0 -1
BITMAP
7c
46
06
7e
c6
ce
7f
06
07
ENDCHAR
STARTCHAR ogonek
ENCODING 178
SWIDTH 586 0
DWIDTH 9 0
BBX 3 2 3 -1
BITMAP
c0
60
ENDCHAR
STARTCHAR lslash
ENCODING 179
SWIDTH 586 0
DWIDTH 9 0
BBX 7 9 1 1
BITMAP
30
10
24
3c
70
50
30
30
fe
ENDCHAR
STARTCHAR acute
ENCODING 180
SWIDTH 586 0
DWIDTH 9 0
BBX 4 1 3 9
BITMAP
60
ENDCHAR
STARTCHAR lcaron
ENCODING 181
SWIDTH 586 0
DWIDTH 9 0
BBX 8 9 1 1
BITMAP
36
10
10
30
30
30
30
30
fe
ENDCHAR
STARTCHAR sacute
ENCODING 182
SWIDTH 586 0
DWIDTH 9 0
BBX 7 9 1 1
BITMAP
18
00
7c
ce
c4
7c
46
c6
fc
ENDCHAR
STARTCHAR caron
ENCODING 183
SWIDTH 586 0
DWIDTH 9 0
BBX 4 2 2 9
BITMAP
90
60
ENDCHAR
STARTCHAR cedilla
ENCODING 184
SWIDTH 586 0
DWIDTH 9 0
BBX 4 4 3 -2
BITMAP
60
70
b0
f0
ENDCHAR
STARTCHAR scaron
ENCODING 185
SWIDTH 586 0
DWIDTH 9 0
BBX 7 10 1 1
BITMAP
48
30
00
7c
ce
c4
7c
46
c6
fc
ENDCHAR
STARTCHAR scedilla
ENCODING 186
SWIDTH 586 0
DWIDTH 9 0
BBX 7 10 1 -2
BITMAP
7c
ce
c4
7c
c6
c6
fc
10
28
38
ENDCHAR
STARTCHAR tcaron
ENCODING 187
SWIDTH 586 0
DWIDTH 9 0
BBX 7 9 1 1
BITMAP
6c
60
fc
60
60
60
60
62
3c
ENDCHAR
STARTCHAR zacute
ENCODING 188
SWIDTH 586 0
DWIDTH 9 0
BBX 7 9 1 1
BITMAP
18
00
fe
cc
d8
18
36
66
fe
ENDCHAR
STARTCHAR hungarumlaut
ENCODING 189
SWIDTH 586 0
DWIDTH 9 0
BBX 6 2 2 8
BITMAP
d8
90
ENDCHAR
STARTCHAR zcaron
ENCODING 190
SWIDTH 586 0
DWIDTH 9 0
BBX 7 10 1 1
BITMAP
48
30
00
fe
cc
d8
18
36
66
fe
ENDCHAR
STARTCHAR zdotaccent
ENCODING 191
SWIDTH 586 0
DWIDTH 9 0
BBX 7 9 1 1
BITMAP
30
00
fe
cc
d8
18
36
66
fe
ENDCHAR
STARTCHAR Racute
ENCODING 192
SWIDTH 586 0
DWIDTH 9 0
BBX 8 11 1 1
BITMAP
18
00
fc
c6
c6
c6
fc
d8
cc
c4
e7
ENDCHAR
STARTCHAR Aacute
ENCODING 193
SWIDTH 586 0
DWIDTH 9 0
BBX 9 11 0 1
BITMAP
0c00
0000
3800
0c00
1400
1400
3600
3e00
2300
6300
f780
ENDCHAR
STARTCHAR Acircumflex
ENCODING 194
SWIDTH 586 0
DWIDTH 9 0
BBX 9 12 0 1
BITMAP
0c00
1200
0000
3800
0c00
1400
1400
3600
3e00
2300
6300
f780
ENDCHAR
STARTCHAR Abreve
ENCODING 195
SWIDTH 586 0
DWIDTH 9 0
BBX 9 12 0 1
BITMAP
2200
1c00
0000
3800
0c00
1400
1400
3600
3e00
2300
6300
f780
ENDCHAR
STARTCHAR Adieresis
ENCODING 196
SWIDTH 586 0
DWIDTH 9 0
BBX 9 12 0 1
BITMAP
2400
2400
0000
3800
0c00
1400
1400
3600
3e00
2300
6300
f780
ENDCHAR
STARTCHAR Lacute
ENCODING 197
SWIDTH 586 0
DWIDTH 9 0
BBX 8 11 1 1
BITMAP
30
00
f0
60
60
60
60
63
63
63
ff
ENDCHAR
STARTCHAR Cacute
ENCODING 198
SWIDTH 586 0
DWIDTH 9 0
BBX 9 11 0 1
BITMAP
0c00
0000
1d00
7380
6180
c100
c000
c000
6080
6180
1e00
ENDCHAR
STARTCHAR Ccedilla
ENCODING 199
SWIDTH 586 0
DWIDTH 9 0
BBX 9 12 0 -2
BITMAP
1d00
7380
6180
c100
c000
c000
6080
6180
1e00
0c00
1600
1e00
ENDCHAR
STARTCHAR Ccaron
ENCODING 200
SWIDTH 586 0
DWIDTH 9 0
BBX 9 12 0 1
BITMAP
1200
0c00
0000
1d00
7380
6180
c100
c000
c000
6080
6180
1e00
ENDCHAR
STARTCHAR Eacute
ENCODING 201
SWIDTH 586 0
DWIDTH 9 0
BBX 8 11 1 1
BITMAP
18
00
ff
63
62
6e
7c
6f
63
63
ff
ENDCHAR
STARTCHAR Eogonek
ENCODING 202
SWIDTH 586 0
DWIDTH 9 0
BBX 8 11 1 -1
BITMAP
ff
63
62
6e
7c
6f
63
63
ff
0c
0f
ENDCHAR
STARTCHAR Edieresis
ENCODING 203
SWIDTH 586 0
DWIDTH 9 0
BBX 8 12 1 1
BITMAP
48
48
00
ff
63
62
6e
7c
6f
63
63
ff
ENDCHAR
STARTCHAR Ecaron
ENCODING 204
SWIDTH 586 0
DWIDTH 9 0
BBX 8 12 1 1
BITMAP
48
30
00
ff
63
62
6e
7c
6f
63
63
ff
ENDCHAR
STARTCHAR Iacute
ENCODING 205
SWIDTH 586 0
DWIDTH 9 0
BBX 7 11 1 1
BITMAP
18
00
fe
18
18
18
18
18
18
18
fe
ENDCHAR
STARTCHAR Icircumflex
ENCODING 206
SWIDTH 586 0
DWIDTH 9 0
BBX 7 12 1 1
BITMAP
18
24
00
fe
18
18
18
18
18
18
18
fe
ENDCHAR
STARTCHAR Dcaron
ENCODING 207
SWIDTH 586 0
DWIDTH 9 0
BBX 9 12 0 1
BITMAP
2400
1800
0000
fe00
6300
6180
6180
6180
6180
6180
6300
fe00
ENDCHAR
STARTCHAR Eth
ENCODING 208
SWIDTH 586 0
DWIDTH 9 0
BBX 9 9 0 1
BITMAP
fe00
6300
6180
6180
f980
6180
6180
6300
fe00
ENDCHAR
STARTCHAR Nacute
ENCODING 209
SWIDTH 586 0
DWIDTH 9 0
BBX 9 11 0 1
BITMAP
0c00
0000
e780
7300
7300
7b00
6b00
6f00
6700
6700
f300
ENDCHAR
STARTCHAR Ncaron
ENCODING 210
SWIDTH 586 0
DWIDTH 9 0
BBX 9 12 0 1
BITMAP
2400
1800
0000
e780
7300
7300
7b00
6b00
6f00
6700
6700
f300
ENDCHAR
STARTCHAR Oacute
ENCODING 211
SWIDTH 586 0
DWIDTH 9 0
BBX 9 11 0 1
BITMAP
0c00
0000
1c00
6300
4100
c180
c180
c180
c180
6300
3e00
ENDCHAR
STARTCHAR Ocircumflex
ENCODING 212
SWIDTH 586 0
DWIDTH 9 0
BBX 9 12 0 1
BITMAP
0c00
1200
0000
1c00
6300
4100
c180
c180
c180
c180
6300
3e00
ENDCHAR
STARTCHAR Ohungarumlaut
ENCODING 213
SWIDTH 586 0
DWIDTH 9 0
BBX 9 11 0 1
BITMAP
3600
2400
1c00
6300
4100
c180
c180
c180
c180
6300
3e00
ENDCHAR
STARTCHAR Odieresis
ENCODING 214
SWIDTH 586 0
DWIDTH 9 0
BBX 9 12 0 1
BITMAP
2400
2400
0000
1c00
6300
4100
c180
c180
c180
c180
6300
3e00
ENDCHAR
STARTCHAR multiply
ENCODING 215
SWIDTH 586 0
DWIDTH 9 0
BBX 6 6 1 3
BITMAP
84
cc
78
30
78
cc
ENDCHAR
STARTCHAR Rcaron
ENCODING 216
SWIDTH 586 0
DWIDTH 9 0
BBX 8 12 1 1
BITMAP
48
30
00
fc
c6
c6
c6
fc
d8
cc
c4
e7
ENDCHAR
STARTCHAR Uring
ENCODING 217
SWIDTH 586 0
DWIDTH 9 0
BBX 9 12 0 1
BITMAP
1c00
1c00
0000
f780
6300
6300
6300
6300
6300
6300
6300
3e00
ENDCHAR
STARTCHAR Uacute
ENCODING 218
SWIDTH 586 0
DWIDTH 9 0
BBX 9 11 0 1
BITMAP
0c00
0000
f780
6300
6300
6300
6300
6300
6300
6300
3e00
ENDCHAR
STARTCHAR Uhungarumlaut
ENCODING 219
SWIDTH 586 0
DWIDTH 9 0
BBX 9 11 0 1
BITMAP
3600
2400
f780
6300
6300
6300
6300
6300
6300
6300
3e00
ENDCHAR
STARTCHAR Udieresis
ENCODING 220
SWIDTH 586 0
DWIDTH 9 0
BBX 9 12 0 1
BITMAP
2400
2400
0000
f780
6300
6300
6300
6300
6300
6300
6300
3e00
ENDCHAR
STARTCHAR Yacute
ENCODING 221
SWIDTH 586 0
DWIDTH 9 0
BBX 7 11 1 1
BITMAP
18
00
ee
44
2c
28
18
18
18
18
7c
ENDCHAR
STARTCHAR Tcedilla
ENCODING 222
SWIDTH 586 0
DWIDTH 9 0
BBX 9 12 0 -2
BITMAP
ff80
cd80
cd80
8d80
0c00
0c00
0c00
0c00
3e00
1c00
1c00
1c00
ENDCHAR
STARTCHAR germandbls
ENCODING 223
SWIDTH 586 0
DWIDTH 9 0
BBX 7 9 1 1
BITMAP
38
6c
6c
78
6c
66
66
76
fc
ENDCHAR
STARTCHAR racute
ENCODING 224
SWIDTH 586 0
DWIDTH 9 0
BBX 8 9 1 1
BITMAP
18
00
ef
7a
60
60
60
60
fc
ENDCHAR
STARTCHAR aacute
ENCODING 225
SWIDTH 586 0
DWIDTH 9 0
BBX 8 9 0 1
BITMAP
0c
00
7c
46
06
7e
c6
ce
7f
ENDCHAR
STARTCHAR acircumflex
ENCODING 226
SWIDTH 586 0
DWIDTH 9 0
BBX 8 10 0 1
BITMAP
0c
12
00
7c
46
06
7e
c6
ce
7f
ENDCHAR
STARTCHAR abreve
ENCODING 227
SWIDTH 586 0
DWIDTH 9 0
BBX 8 10 0 1
BITMAP
22
1c
00
7c
46
06
7e
c6
ce
7f
ENDCHAR
STARTCHAR adieresis
ENCODING 228
SWIDTH 586 0
DWIDTH 9 0
BBX 8 10 0 1
BITMAP
24
24
00
7c
46
06
7e
c6
ce
7f
ENDCHAR
STARTCHAR lacute
ENCODING 229
SWIDTH 586 0
DWIDTH 9 0
BBX 7 12 1 1
BITMAP
18
00
00
30
10
10
30
30
30
30
30
fe
ENDCHAR
STARTCHAR cacute
ENCODING 230
SWIDTH 586 0
DWIDTH 9 0
BBX 8 9 1 1
BITMAP
18
00
3c
46
c2
c0
c0
46
3c
ENDCHAR
STARTCHAR ccedilla
ENCODING 231
SWIDTH 586 0
DWIDTH 9 0
BBX 8 10 1 -2
BITMAP
3a
46
c2
c0
c0
46
7c
18
2c
38
ENDCHAR
STARTCHAR ccaron
ENCODING 232
SWIDTH 586 0
DWIDTH 9 0
BBX 8 10 1 1
BITMAP
24
18
00
3c
46
c2
c0
c0
46
3c
ENDCHAR
STARTCHAR eacute
ENCODING 233
SWIDTH 586 0
DWIDTH 9 0
BBX 8 9 1 1
BITMAP
18
00
3c
46
c3
ff
c0
43
3c
ENDCHAR
STARTCHAR eogonek
ENCODING 234
SWIDTH 586 0
DWIDTH 9 0
BBX 8 9 1 -1
BITMAP
3c
46
c2
fe
80
c2
7c
30
38
ENDCHAR
STARTCHAR edieresis
ENCODING 235
SWIDTH 586 0
DWIDTH 9 0
BBX 8 10 1 1
BITMAP
48
48
00
3c
46
c3
ff
c0
43
3c
ENDCHAR
STARTCHAR ecaron
ENCODING 236
SWIDTH 586 0
DWIDTH 9 0
BBX 8 10 1 1
BITMAP
48
30
00
3c
46
c3
ff
c0
43
3c
ENDCHAR
STARTCHAR iacute
ENCODING 237
SWIDTH 586 0
DWIDTH 9 0
BBX 7 9 1 1
BITMAP
18
00
78
18
18
18
18
18
fe
ENDCHAR
STARTCHAR icircumflex
ENCODING 238
SWIDTH 586 0
DWIDTH 9 0
BBX 7 10 1 1
BITMAP
18
24
00
78
18
18
18
18
18
fe
ENDCHAR
STARTCHAR dcaron
ENCODING 239
SWIDTH 586 0
DWIDTH 9 0
BBX 11 9 0 1
BITMAP
0fc0
0300
3f00
6700
c300
c300
c300
6700
3f80
ENDCHAR
STARTCHAR dbar
ENCODING 240
SWIDTH 586 0
DWIDTH 9 0
BBX 9 9 0 1
BITMAP
0f00
1f80
0300
3f00
e300
c300
c300
6700
3f80
ENDCHAR
STARTCHAR nacute
ENCODING 241
SWIDTH 586 0
DWIDTH 9 0
BBX 9 9 0 1
BITMAP
0c00
0000
fe00
7300
6300
6300
6300
6300
f780
ENDCHAR
STARTCHAR ncaron
ENCODING 242
SWIDTH 586 0
DWIDTH 9 0
BBX 9 10 0 1
BITMAP
2400
1800
0000
fe00
7300
6300
6300
6300
6300
f780
ENDCHAR
STARTCHAR oacute
ENCODING 243
SWIDTH 586 0
DWIDTH 9 0
BBX 9 9 0 1
BITMAP
0c00
0000
3e00
6300
c180
c180
c180
6300
3e00
ENDCHAR
STARTCHAR ocircumflex
ENCODING 244
SWIDTH 586 0
DWIDTH 9 0
BBX 9 10 0 1
BITMAP
0c00
1200
0000
3e00
6300
c180
c180
c180
6300
3e00
ENDCHAR
STARTCHAR ohungarumlaut
ENCODING 245
SWIDTH 586 0
DWIDTH 9 0
BBX 9 9 0 1
BITMAP
3600
2400
3e00
6300
c180
c180
c180
6300
3e00
ENDCHAR
STARTCHAR odieresis
ENCODING 246
SWIDTH 586 0
DWIDTH 9 0
BBX 9 10 0 1
BITMAP
2400
2400
0000
3e00
6300
c180
c180
c180
6300
3e00
ENDCHAR
STARTCHAR divide
ENCODING 247
SWIDTH 586 0
DWIDTH 9 0
BBX 7 7 1 2
BITMAP
30
30
00
fe
00
30
30
ENDCHAR
STARTCHAR rcaron
ENCODING 248
SWIDTH 586 0
DWIDTH 9 0
BBX 8 10 1 1
BITMAP
48
30
00
ef
7a
60
60
60
60
fc
ENDCHAR
STARTCHAR uring
ENCODING 249
SWIDTH 586 0
DWIDTH 9 0
BBX 8 10 0 1
BITMAP
1c
1c
00
e7
63
63
63
63
67
3d
ENDCHAR
STARTCHAR uacute
ENCODING 250
SWIDTH 586 0
DWIDTH 9 0
BBX 8 9 0 1
BITMAP
0c
00
e7
63
63
63
63
67
3d
ENDCHAR
STARTCHAR uhungarumlaut
ENCODING 251
SWIDTH 586 0
DWIDTH 9 0
BBX 8 9 0 1
BITMAP
36
24
e7
63
63
63
63
67
3d
ENDCHAR
STARTCHAR udieresis
ENCODING 252
SWIDTH 586 0
DWIDTH 9 0
BBX 8 10 0 1
BITMAP
24
24
00
e7
63
63
63
63
67
3d
ENDCHAR
STARTCHAR yacute
ENCODING 253
SWIDTH 586 0
DWIDTH 9 0
BBX 9 11 0 -1
BITMAP
0c00
0000
e380
4300
2200
3600
1400
1c00
0800
1800
f800
ENDCHAR
STARTCHAR tcedilla
ENCODING 254
SWIDTH 586 0
DWIDTH 9 0
BBX 7 12 1 -2
BITMAP
60
60
fc
60
60
60
60
62
3e
18
1c
3c
ENDCHAR
STARTCHAR dotaccent
ENCODING 255
SWIDTH 586 0
DWIDTH 9 0
BBX 2 1 3 9
BITMAP
c0
ENDCHAR
ENDFONT
